# xmcd
#
# Track frame offsets:
#       150
#       24316
#       49756
#       66832
#       89197
#       108120
#       123562
#       139762
#       170813
#       187256
#       200235
#       214885
#       232170
#       250041
#       274367
#       286109
#       303262
#
# Disc length: 4319 seconds
#
# Revision: 0
# Processed by: cddbd v1.5.2PL0 Copyright (c) Steve Scherf et al.
# Submitted via: WhereIsIt 3.51
#
DISCID=0f10dd11
DTITLE=Celso Blues Boy - ´In Blues vol. 2
DYEAR=2007
DGENRE=
TTITLE0=Mississipi - Sobre Robert Johnson (com B. B. King)
TTITLE1=Bring It On Home to Me
TTITLE2=Vagabundo Errante
TTITLE3=Amor Vazio
TTITLE4=Fumando na Escuridão
TTITLE5=Marginal (com Cazuza)
TTITLE6=Cachorro Louco
TTITLE7=Se Você Pudesse Me Ver
TTITLE8=Mundo Insano
TTITLE9=Só Resta Um Blues
TTITLE10=Filhos da Bomba
TTITLE11=Tempos Difíceis
TTITLE12=Aumenta que isso aí é Rock and Roll
TTITLE13=De Um Jeito Blues (ao vivo)
TTITLE14=Me Diga O Que é O Amor (ao vivo)
TTITLE15=Sem Ninguém (ao vivo)
TTITLE16=Sempre Brilhará (ao vivo)
EXTD=
EXTT0=
EXTT1=
EXTT2=
EXTT3=
EXTT4=
EXTT5=
EXTT6=
EXTT7=
EXTT8=
EXTT9=
EXTT10=
EXTT11=
EXTT12=
EXTT13=
EXTT14=
EXTT15=
EXTT16=
PLAYORDER=
